<svg width="263" height="61" viewBox="0 0 263 61" fill="none" xmlns="http://www.w3.org/2000/svg">
<path d="M6.90625 20.4375C6.65625 20.5208 6.46875 20.5312 6.34375 20.4688C6.21875 20.4062 6.125 20.3021 6.0625 20.1562C6 20.0104 5.96875 19.8542 5.96875 19.6875C5.96875 19.5 5.97917 19.3229 6 19.1562C6.02083 19.0104 6.05208 18.8438 6.09375 18.6562C6.15625 18.4688 6.22917 18.2917 6.3125 18.125C6.39583 17.9583 6.48958 17.8229 6.59375 17.7188C6.71875 17.5938 6.875 17.5104 7.0625 17.4688C8.02083 17.3021 8.94792 17.1771 9.84375 17.0938C10.7604 17.0104 11.5833 16.9479 12.3125 16.9062C13.1458 16.8438 13.9479 16.8125 14.7188 16.8125C14.8854 16.8125 15.0521 16.8229 15.2188 16.8438C15.3854 16.8438 15.5521 16.8438 15.7188 16.8438C15.9062 16.8021 16.0521 16.7917 16.1562 16.8125C16.2812 16.8125 16.3854 16.8229 16.4688 16.8438C17.0729 16.8646 17.6979 16.8958 18.3438 16.9375C18.8854 16.9792 19.4896 17.0312 20.1562 17.0938C20.8438 17.1354 21.5208 17.1979 22.1875 17.2812C22.25 17.4479 22.2604 17.6562 22.2188 17.9062C22.1979 18.0312 22.1771 18.1562 22.1562 18.2812C22.1354 18.4062 22.0833 18.5208 22 18.625C21.9375 18.7292 21.8542 18.8333 21.75 18.9375C21.6667 19.0208 21.5625 19.0938 21.4375 19.1562C20.7292 19.1354 20.0417 19.125 19.375 19.125C18.7292 19.1042 18.1562 19.0938 17.6562 19.0938H15.9688C15.6979 20.0521 15.3646 21.2396 14.9688 22.6562C14.5729 24.0521 14.1667 25.5312 13.75 27.0938C13.3542 28.6354 12.9688 30.1771 12.5938 31.7188C12.2396 33.2396 11.9583 34.6146 11.75 35.8438C11.5417 37.0312 11.3333 38.1979 11.125 39.3438C11.0417 39.8229 10.9479 40.3229 10.8438 40.8438C10.7604 41.3646 10.6771 41.875 10.5938 42.375C10.5312 42.875 10.4688 43.3542 10.4062 43.8125C10.3438 44.2708 10.2917 44.6875 10.25 45.0625C9.91667 45.2292 9.60417 45.3542 9.3125 45.4375C9.02083 45.5417 8.76042 45.6146 8.53125 45.6562C8.26042 45.7188 8.01042 45.75 7.78125 45.75C7.28125 45.75 6.96875 45.6875 6.84375 45.5625C6.73958 45.4583 6.72917 45.2396 6.8125 44.9062C6.875 44.6146 7.0625 43.8229 7.375 42.5312C7.5 41.9896 7.65625 41.3021 7.84375 40.4688C8.05208 39.6562 8.29167 38.6667 8.5625 37.5C8.83333 36.3125 9.15625 34.9375 9.53125 33.375C9.90625 31.7917 10.3333 29.9792 10.8125 27.9375L12.9062 19.25C12.2812 19.3333 11.6667 19.4271 11.0625 19.5312C10.4583 19.6354 9.88542 19.75 9.34375 19.875C8.82292 19.9792 8.34375 20.0833 7.90625 20.1875C7.48958 20.2917 7.15625 20.375 6.90625 20.4375ZM17.375 39.8438C17.2292 40.0729 17.0729 40.2188 16.9062 40.2812C16.7188 40.3646 16.5625 40.375 16.4375 40.3125C16.2917 40.2708 16.1979 40.1667 16.1562 40C16.1146 39.8333 16.1562 39.625 16.2812 39.375C16.3438 39.25 16.4896 38.9688 16.7188 38.5312C16.9271 38.0938 17.1875 37.5729 17.5 36.9688C17.7917 36.3438 18.1146 35.6771 18.4688 34.9688C18.8229 34.2396 19.1562 33.5521 19.4688 32.9062C19.8021 32.2604 20.1042 31.6875 20.375 31.1875C20.6458 30.6667 20.8438 30.2917 20.9688 30.0625C20.7396 29.8542 20.5833 29.7083 20.5 29.625C20.4167 29.5208 20.3542 29.3125 20.3125 29C20.2708 28.7292 20.3333 28.375 20.5 27.9375C20.6667 27.5 20.8854 27.0833 21.1562 26.6875C21.4271 26.2708 21.7292 25.9167 22.0625 25.625C22.3958 25.3333 22.7188 25.1875 23.0312 25.1875C23.6146 25.1875 24.0208 25.375 24.25 25.75C24.5 26.125 24.6458 26.5104 24.6875 26.9062C24.7292 27.1771 24.7083 27.5208 24.625 27.9375C24.5417 28.3542 24.3854 28.7292 24.1562 29.0625C24.2188 29.1042 24.3021 29.1562 24.4062 29.2188C24.5104 29.2604 24.6771 29.2812 24.9062 29.2812C25.2396 29.2812 25.4688 29.2604 25.5938 29.2188C25.7396 29.1771 25.9583 29.1562 26.25 29.1562C26.6042 29.1562 26.8958 29.25 27.125 29.4375C27.3542 29.6042 27.5417 29.8229 27.6875 30.0938C27.8333 30.3438 27.9375 30.625 28 30.9375C28.0833 31.2292 28.1354 31.5 28.1562 31.75C28.2188 32.2708 28.0833 32.8125 27.75 33.375C27.4167 33.9375 27.0104 34.5521 26.5312 35.2188C26.2396 35.6354 25.9479 36.1042 25.6562 36.625C25.3646 37.1458 25.2396 37.6146 25.2812 38.0312C25.3229 38.3021 25.3958 38.5208 25.5 38.6875C25.6042 38.8542 25.8958 38.9375 26.375 38.9375C26.7292 38.9375 27.1146 38.8125 27.5312 38.5625C27.9688 38.2917 28.4062 37.9583 28.8438 37.5625C29.3021 37.1458 29.75 36.6979 30.1875 36.2188C30.625 35.7188 31.0312 35.2396 31.4062 34.7812C31.7812 34.3021 32.0938 33.875 32.3438 33.5C32.6146 33.125 32.8125 32.8542 32.9375 32.6875C33.0417 32.5208 33.1771 32.4062 33.3438 32.3438C33.5104 32.2812 33.6562 32.2812 33.7812 32.3438C33.9062 32.4062 33.9792 32.5312 34 32.7188C34.0417 32.9062 33.9688 33.1562 33.7812 33.4688C33.6562 33.6771 33.4375 34.0104 33.125 34.4688C32.8333 34.9271 32.4688 35.4375 32.0312 36C31.6146 36.5625 31.1458 37.1458 30.625 37.75C30.1042 38.3333 29.5521 38.875 28.9688 39.375C28.4062 39.8542 27.8333 40.25 27.25 40.5625C26.6875 40.875 26.1458 41.0312 25.625 41.0312C25.0833 41.0312 24.6354 40.9271 24.2812 40.7188C23.9271 40.5104 23.6354 40.2604 23.4062 39.9688C23.1979 39.6562 23.0417 39.3229 22.9375 38.9688C22.8542 38.5938 22.8229 38.25 22.8438 37.9375C22.8646 37.6875 22.9271 37.4271 23.0312 37.1562C23.1562 36.8646 23.2917 36.5729 23.4375 36.2812C23.6042 35.9688 23.7708 35.6667 23.9375 35.375C24.125 35.0625 24.2917 34.7604 24.4375 34.4688C24.7917 33.8646 25.0729 33.3542 25.2812 32.9375C25.5104 32.5 25.625 32.1354 25.625 31.8438C25.625 31.6562 25.5833 31.4896 25.5 31.3438C25.4167 31.1979 25.2812 31.125 25.0938 31.125C24.9688 31.125 24.875 31.1354 24.8125 31.1562C24.7708 31.1562 24.7188 31.1562 24.6562 31.1562C24.6146 31.1562 24.5417 31.1667 24.4375 31.1875C24.3542 31.1875 24.2188 31.1875 24.0312 31.1875C23.7604 31.1875 23.5312 31.1458 23.3438 31.0625C23.1562 30.9792 22.9792 30.9167 22.8125 30.875C22.7292 31.0208 22.5417 31.3333 22.25 31.8125C21.9583 32.2917 21.6146 32.8542 21.2188 33.5C20.8438 34.1458 20.4375 34.8229 20 35.5312C19.5833 36.2396 19.1875 36.9062 18.8125 37.5312C18.4375 38.1354 18.125 38.6562 17.875 39.0938C17.6042 39.5104 17.4375 39.7604 17.375 39.8438ZM47.5938 33.7812C47.3021 34.1979 46.9271 34.7188 46.4688 35.3438C46.0104 35.9479 45.5312 36.5625 45.0312 37.1875C44.5521 37.7917 44.0729 38.3542 43.5938 38.875C43.1354 39.375 42.75 39.7292 42.4375 39.9375C42.2292 40.0625 41.9896 40.1667 41.7188 40.25C41.4479 40.3333 41.1667 40.3854 40.875 40.4062C40.6042 40.4271 40.3438 40.4062 40.0938 40.3438C39.8438 40.3021 39.625 40.2188 39.4375 40.0938C39.25 39.9479 39.0938 39.7396 38.9688 39.4688C38.8646 39.2396 38.7604 38.9375 38.6562 38.5625C38.5729 38.1875 38.5417 37.7188 38.5625 37.1562C38.0625 37.9896 37.5104 38.6354 36.9062 39.0938C36.3021 39.5312 35.7292 39.8542 35.1875 40.0625C34.5625 40.2917 33.9375 40.4271 33.3125 40.4688C33.0208 40.4688 32.7083 40.3646 32.375 40.1562C32.0417 39.9688 31.7604 39.6667 31.5312 39.25C31.3021 38.8125 31.1562 38.2604 31.0938 37.5938C31.0312 36.9062 31.1146 36.0938 31.3438 35.1562C31.6354 33.8854 32.0938 32.7292 32.7188 31.6875C33.3646 30.6458 34.0625 29.7604 34.8125 29.0312C35.5625 28.2812 36.3021 27.7188 37.0312 27.3438C37.7604 26.9688 38.3646 26.8021 38.8438 26.8438C39.4062 26.9479 39.8646 27.1146 40.2188 27.3438C40.5104 27.5521 40.6979 27.8646 40.7812 28.2812C40.8854 28.6771 40.7188 29.2083 40.2812 29.875C40.5729 29.8125 40.8125 29.7708 41 29.75C41.2083 29.7292 41.3646 29.7188 41.4688 29.7188C41.5938 29.7188 41.6771 29.7292 41.7188 29.75C41.7396 29.7917 41.75 29.8854 41.75 30.0312C41.75 30.1562 41.7188 30.3958 41.6562 30.75C41.5938 31.1042 41.5 31.5833 41.375 32.1875C41.25 32.7917 41.0833 33.5729 40.875 34.5312C40.8333 34.7188 40.7917 34.8958 40.75 35.0625C40.7292 35.2083 40.6979 35.3646 40.6562 35.5312C40.6354 35.6771 40.6042 35.8542 40.5625 36.0625C40.5208 36.2708 40.4688 36.5312 40.4062 36.8438C40.3854 37.0312 40.375 37.2396 40.375 37.4688C40.3958 37.6771 40.4375 37.875 40.5 38.0625C40.5625 38.25 40.6562 38.4062 40.7812 38.5312C40.9271 38.6354 41.125 38.6875 41.375 38.6875C41.5833 38.6875 41.8542 38.5625 42.1875 38.3125C42.5208 38.0417 42.875 37.7083 43.25 37.3125C43.625 36.8958 44.0104 36.4479 44.4062 35.9688C44.8229 35.4688 45.2083 34.9896 45.5625 34.5312C45.9167 34.0729 46.2292 33.6667 46.5 33.3125C46.7917 32.9583 47 32.6979 47.125 32.5312C47.2917 32.3438 47.4583 32.2396 47.625 32.2188C47.7917 32.1771 47.9167 32.2188 48 32.3438C48.0833 32.4688 48.0938 32.6562 48.0312 32.9062C47.9896 33.1562 47.8438 33.4479 47.5938 33.7812ZM38.4375 35.1562C38.5417 34.7396 38.6667 34.25 38.8125 33.6875C38.9583 33.125 39.0833 32.5833 39.1875 32.0625C39.2917 31.5417 39.3646 31.1146 39.4062 30.7812C39.4688 30.4271 39.4583 30.2604 39.375 30.2812C39.2708 30.3021 39.1562 30.3333 39.0312 30.375C38.9271 30.4167 38.7917 30.4479 38.625 30.4688C38.4583 30.4896 38.2917 30.5208 38.125 30.5625C38.2917 30.2292 38.3854 29.9583 38.4062 29.75C38.4479 29.5208 38.4583 29.3438 38.4375 29.2188C38.4167 29.0729 38.375 28.9583 38.3125 28.875C38.0833 28.6875 37.6771 28.8438 37.0938 29.3438C36.5312 29.8229 35.875 30.7188 35.125 32.0312C34.8125 32.5729 34.5625 33.1562 34.375 33.7812C34.1875 34.3854 34.0521 34.9583 33.9688 35.5C33.9062 36.0417 33.8958 36.5208 33.9375 36.9375C33.9792 37.3333 34.0625 37.5938 34.1875 37.7188C34.4167 37.9479 34.6771 38.0625 34.9688 38.0625C35.2604 38.0417 35.5521 37.9583 35.8438 37.8125C36.1562 37.6458 36.4583 37.4375 36.75 37.1875C37.0625 36.9375 37.3333 36.6771 37.5625 36.4062C37.8125 36.1354 38.0104 35.8854 38.1562 35.6562C38.3229 35.4271 38.4167 35.2604 38.4375 35.1562ZM57.0312 32.0938C57.1146 31.9688 57.2188 31.8958 57.3438 31.875C57.4896 31.8333 57.6042 31.8438 57.6875 31.9062C57.7708 31.9688 57.8125 32.0729 57.8125 32.2188C57.8333 32.3646 57.7812 32.5625 57.6562 32.8125C57.2396 33.6042 56.6875 34.4583 56 35.375C55.3333 36.2917 54.625 37.1562 53.875 37.9688C53.125 38.7604 52.3958 39.4167 51.6875 39.9375C50.9792 40.4583 50.3854 40.7188 49.9062 40.7188C49.2188 40.7188 48.6458 40.5833 48.1875 40.3125C47.7292 40.0417 47.3646 39.7083 47.0938 39.3125C46.8438 38.9167 46.6667 38.4896 46.5625 38.0312C46.4583 37.5521 46.4271 37.1146 46.4688 36.7188C46.4896 36.3854 46.5625 35.7917 46.6875 34.9375C46.8125 34.0625 46.9792 33.0625 47.1875 31.9375C47.3958 30.7917 47.625 29.5729 47.875 28.2812C48.1458 26.9688 48.4271 25.7083 48.7188 24.5C48.3646 24.5417 48.0104 24.5833 47.6562 24.625C47.3021 24.6667 46.9792 24.6875 46.6875 24.6875C46.0208 24.6875 45.3958 24.6146 44.8125 24.4688C44.2083 24.3021 43.7604 24.1458 43.4688 24C43.3021 23.9167 43.2292 23.8021 43.25 23.6562C43.2708 23.4896 43.3333 23.3333 43.4375 23.1875C43.5417 23.0208 43.6771 22.8854 43.8438 22.7812C43.9896 22.6562 44.125 22.5938 44.25 22.5938C44.6458 22.6354 45.0729 22.6771 45.5312 22.7188C45.9896 22.7396 46.4896 22.7396 47.0312 22.7188C47.4271 22.6979 47.8021 22.6667 48.1562 22.625C48.5312 22.5833 48.8958 22.5312 49.25 22.4688C49.5208 21.4688 49.7812 20.6042 50.0312 19.875C50.3021 19.125 50.5417 18.6042 50.75 18.3125C50.8125 18.2083 50.9479 18.125 51.1562 18.0625C51.3854 17.9792 51.625 17.9271 51.875 17.9062C52.125 17.8646 52.3646 17.8646 52.5938 17.9062C52.8229 17.9271 52.9896 18 53.0938 18.125C53.1979 18.2917 53.2396 18.7188 53.2188 19.4062C53.1979 20.0938 53.0833 20.9688 52.875 22.0312C53.75 22.0312 54.5208 22.0833 55.1875 22.1875C55.875 22.2708 56.4583 22.375 56.9375 22.5C57.4167 22.6042 57.8021 22.7188 58.0938 22.8438C58.3854 22.9479 58.6042 23.0208 58.75 23.0625C58.8958 23.1042 58.9688 23.2083 58.9688 23.375C58.9896 23.5417 58.9583 23.7188 58.875 23.9062C58.8125 24.0729 58.6979 24.2188 58.5312 24.3438C58.3646 24.4688 58.1771 24.5104 57.9688 24.4688C57.7604 24.4479 57.5208 24.4062 57.25 24.3438C57 24.2812 56.6875 24.2292 56.3125 24.1875C55.9583 24.1458 55.5312 24.1042 55.0312 24.0625C54.5312 24.0208 53.9479 24 53.2812 24C53.1562 24 53.0104 24.0104 52.8438 24.0312C52.6979 24.0312 52.5417 24.0312 52.375 24.0312C52.2917 24.3646 52.2083 24.6979 52.125 25.0312C52.0625 25.3438 51.9688 25.6771 51.8438 26.0312C51.5729 26.8646 51.2604 27.7708 50.9062 28.75C50.5938 29.6042 50.2188 30.5833 49.7812 31.6875C49.3438 32.7917 48.8542 33.9688 48.3125 35.2188C48.1875 36.1146 48.1979 36.8021 48.3438 37.2812C48.5104 37.7396 48.7083 38.0729 48.9375 38.2812C49.2083 38.5104 49.5417 38.6354 49.9375 38.6562C50.25 38.6979 50.625 38.5938 51.0625 38.3438C51.5208 38.0729 51.9896 37.7188 52.4688 37.2812C52.9479 36.8438 53.4271 36.3646 53.9062 35.8438C54.4062 35.3229 54.8646 34.8125 55.2812 34.3125C55.6979 33.8125 56.0625 33.3646 56.375 32.9688C56.6875 32.5521 56.9062 32.2604 57.0312 32.0938ZM66.6875 32.0938C66.7708 31.9688 66.875 31.8958 67 31.875C67.1458 31.8333 67.2604 31.8438 67.3438 31.9062C67.4271 31.9688 67.4688 32.0729 67.4688 32.2188C67.4896 32.3646 67.4375 32.5625 67.3125 32.8125C66.8958 33.6042 66.3438 34.4583 65.6562 35.375C64.9896 36.2917 64.2812 37.1562 63.5312 37.9688C62.7812 38.7604 62.0521 39.4167 61.3438 39.9375C60.6354 40.4583 60.0417 40.7188 59.5625 40.7188C58.875 40.7188 58.3021 40.5833 57.8438 40.3125C57.3854 40.0417 57.0208 39.7083 56.75 39.3125C56.5 38.9167 56.3229 38.4896 56.2188 38.0312C56.1146 37.5521 56.0833 37.1146 56.125 36.7188C56.1458 36.3854 56.2188 35.7917 56.3438 34.9375C56.4688 34.0625 56.6354 33.0625 56.8438 31.9375C57.0521 30.7917 57.2812 29.5729 57.5312 28.2812C57.8021 26.9688 58.0833 25.7083 58.375 24.5C58.0208 24.5417 57.6667 24.5833 57.3125 24.625C56.9583 24.6667 56.6354 24.6875 56.3438 24.6875C55.6771 24.6875 55.0521 24.6146 54.4688 24.4688C53.8646 24.3021 53.4167 24.1458 53.125 24C52.9583 23.9167 52.8854 23.8021 52.9062 23.6562C52.9271 23.4896 52.9896 23.3333 53.0938 23.1875C53.1979 23.0208 53.3333 22.8854 53.5 22.7812C53.6458 22.6562 53.7812 22.5938 53.9062 22.5938C54.3021 22.6354 54.7292 22.6771 55.1875 22.7188C55.6458 22.7396 56.1458 22.7396 56.6875 22.7188C57.0833 22.6979 57.4583 22.6667 57.8125 22.625C58.1875 22.5833 58.5521 22.5312 58.9062 22.4688C59.1771 21.4688 59.4375 20.6042 59.6875 19.875C59.9583 19.125 60.1979 18.6042 60.4062 18.3125C60.4688 18.2083 60.6042 18.125 60.8125 18.0625C61.0417 17.9792 61.2812 17.9271 61.5312 17.9062C61.7812 17.8646 62.0208 17.8646 62.25 17.9062C62.4792 17.9271 62.6458 18 62.75 18.125C62.8542 18.2917 62.8958 18.7188 62.875 19.4062C62.8542 20.0938 62.7396 20.9688 62.5312 22.0312C63.4062 22.0312 64.1771 22.0833 64.8438 22.1875C65.5312 22.2708 66.1146 22.375 66.5938 22.5C67.0729 22.6042 67.4583 22.7188 67.75 22.8438C68.0417 22.9479 68.2604 23.0208 68.4062 23.0625C68.5521 23.1042 68.625 23.2083 68.625 23.375C68.6458 23.5417 68.6146 23.7188 68.5312 23.9062C68.4688 24.0729 68.3542 24.2188 68.1875 24.3438C68.0208 24.4688 67.8333 24.5104 67.625 24.4688C67.4167 24.4479 67.1771 24.4062 66.9062 24.3438C66.6562 24.2812 66.3438 24.2292 65.9688 24.1875C65.6146 24.1458 65.1875 24.1042 64.6875 24.0625C64.1875 24.0208 63.6042 24 62.9375 24C62.8125 24 62.6667 24.0104 62.5 24.0312C62.3542 24.0312 62.1979 24.0312 62.0312 24.0312C61.9479 24.3646 61.8646 24.6979 61.7812 25.0312C61.7188 25.3438 61.625 25.6771 61.5 26.0312C61.2292 26.8646 60.9167 27.7708 60.5625 28.75C60.25 29.6042 59.875 30.5833 59.4375 31.6875C59 32.7917 58.5104 33.9688 57.9688 35.2188C57.8438 36.1146 57.8542 36.8021 58 37.2812C58.1667 37.7396 58.3646 38.0729 58.5938 38.2812C58.8646 38.5104 59.1979 38.6354 59.5938 38.6562C59.9062 38.6979 60.2812 38.5938 60.7188 38.3438C61.1771 38.0729 61.6458 37.7188 62.125 37.2812C62.6042 36.8438 63.0833 36.3646 63.5625 35.8438C64.0625 35.3229 64.5208 34.8125 64.9375 34.3125C65.3542 33.8125 65.7188 33.3646 66.0312 32.9688C66.3438 32.5521 66.5625 32.2604 66.6875 32.0938ZM74.0625 35.0312C73.8542 35.8229 73.5729 36.5625 73.2188 37.25C72.8646 37.9375 72.4375 38.5312 71.9375 39.0312C71.4583 39.5312 70.9062 39.9167 70.2812 40.1875C69.6771 40.4792 69.0104 40.625 68.2812 40.625C67.4271 40.625 66.75 40.4375 66.25 40.0625C65.7708 39.7083 65.4062 39.2604 65.1562 38.7188C64.9271 38.1771 64.7917 37.5833 64.75 36.9375C64.6875 36.2917 64.6562 35.6875 64.6562 35.125C64.6562 34.7292 64.7083 34.2917 64.8125 33.8125C64.8958 33.3333 65.0208 32.8438 65.1875 32.3438C65.3542 31.8438 65.5625 31.3438 65.8125 30.8438C66.0833 30.3438 66.3958 29.8854 66.75 29.4688C66.875 29.1146 67.0625 28.8021 67.3125 28.5312C67.5833 28.2604 67.8854 28.0417 68.2188 27.875C68.5729 27.6875 68.9479 27.5521 69.3438 27.4688C69.7396 27.3646 70.125 27.3125 70.5 27.3125C70.5625 27.3125 70.6146 27.3229 70.6562 27.3438C70.7188 27.3646 70.7812 27.3854 70.8438 27.4062C71.1146 27.4271 71.4479 27.5312 71.8438 27.7188C72.2604 27.9062 72.6562 28.1875 73.0312 28.5625C73.4271 28.9375 73.7604 29.4167 74.0312 30C74.3021 30.5625 74.4375 31.25 74.4375 32.0625C74.4375 32.2292 74.4271 32.4375 74.4062 32.6875C74.3854 32.9167 74.3646 33.1146 74.3438 33.2812C74.8229 33.0938 75.3229 32.8646 75.8438 32.5938C76.3646 32.3229 76.8646 32.0417 77.3438 31.75C77.8438 31.4375 78.3021 31.125 78.7188 30.8125C79.1354 30.5 79.4688 30.2188 79.7188 29.9688C79.9271 29.7812 80.1042 29.6771 80.25 29.6562C80.3958 29.6354 80.5 29.6771 80.5625 29.7812C80.625 29.8854 80.6354 30.0312 80.5938 30.2188C80.5521 30.4062 80.4375 30.6146 80.25 30.8438C80.1458 30.9688 79.875 31.2188 79.4375 31.5938C79.0208 31.9688 78.5208 32.375 77.9375 32.8125C77.3542 33.25 76.7188 33.6771 76.0312 34.0938C75.3438 34.5104 74.6875 34.8229 74.0625 35.0312ZM68.7812 30.2812C68.7188 30.4688 68.6875 30.6667 68.6875 30.875C68.6875 31.2083 68.7083 31.5625 68.75 31.9375C68.7917 32.2917 68.8958 32.6146 69.0625 32.9062C69.2292 33.1979 69.4896 33.4479 69.8438 33.6562C70.2188 33.8438 70.7292 33.9375 71.375 33.9375C71.4792 33.9375 71.5833 33.9375 71.6875 33.9375C71.7917 33.9167 71.8958 33.8958 72 33.875C72.0625 33.6042 72.1146 33.3646 72.1562 33.1562C72.2188 32.9271 72.25 32.7292 72.25 32.5625C72.2917 32.1667 72.2917 31.7604 72.25 31.3438C72.2083 30.9271 72.125 30.5521 72 30.2188C71.8958 29.8646 71.75 29.5833 71.5625 29.375C71.3958 29.1458 71.1875 29.0312 70.9375 29.0312C70.5417 29.0312 70.1562 29.1458 69.7812 29.375C69.4271 29.5833 69.0938 29.8854 68.7812 30.2812ZM66.7812 35.7812C66.7812 36.1562 66.8021 36.5312 66.8438 36.9062C66.8854 37.2604 66.9688 37.5833 67.0938 37.875C67.2188 38.1458 67.3854 38.375 67.5938 38.5625C67.8021 38.7292 68.0729 38.8125 68.4062 38.8125C68.7812 38.8125 69.125 38.7292 69.4375 38.5625C69.75 38.375 70.0312 38.1458 70.2812 37.875C70.5312 37.5833 70.75 37.2604 70.9375 36.9062C71.1458 36.5312 71.3229 36.1458 71.4688 35.75C71.3229 35.7708 71.1771 35.7917 71.0312 35.8125C70.9062 35.8125 70.7604 35.8125 70.5938 35.8125C69.8021 35.8125 69.1146 35.5833 68.5312 35.125C67.9688 34.6458 67.5312 34.0417 67.2188 33.3125C67.0938 33.75 66.9896 34.1771 66.9062 34.5938C66.8229 35.0104 66.7812 35.4062 66.7812 35.7812ZM76.2188 39.8438C76.0729 40.0729 75.9167 40.2188 75.75 40.2812C75.5625 40.3646 75.4062 40.375 75.2812 40.3125C75.1354 40.2708 75.0417 40.1667 75 40C74.9583 39.8333 75 39.625 75.125 39.375C75.1875 39.25 75.3333 38.9688 75.5625 38.5312C75.7708 38.0938 76.0312 37.5729 76.3438 36.9688C76.6354 36.3438 76.9583 35.6771 77.3125 34.9688C77.6667 34.2396 78 33.5521 78.3125 32.9062C78.6458 32.2604 78.9479 31.6875 79.2188 31.1875C79.4896 30.6667 79.6875 30.2917 79.8125 30.0625C79.5833 29.8542 79.4271 29.7083 79.3438 29.625C79.2604 29.5208 79.1979 29.3125 79.1562 29C79.1146 28.7292 79.1771 28.375 79.3438 27.9375C79.5104 27.5 79.7292 27.0833 80 26.6875C80.2708 26.2708 80.5729 25.9167 80.9062 25.625C81.2396 25.3333 81.5625 25.1875 81.875 25.1875C82.4583 25.1875 82.8646 25.375 83.0938 25.75C83.3438 26.125 83.4896 26.5104 83.5312 26.9062C83.5729 27.1771 83.5521 27.5208 83.4688 27.9375C83.3854 28.3542 83.2292 28.7292 83 29.0625C83.0625 29.1042 83.1458 29.1562 83.25 29.2188C83.3542 29.2604 83.5208 29.2812 83.75 29.2812C84.0833 29.2812 84.3125 29.2604 84.4375 29.2188C84.5833 29.1771 84.8021 29.1562 85.0938 29.1562C85.4479 29.1562 85.7396 29.25 85.9688 29.4375C86.1979 29.6042 86.3854 29.8229 86.5312 30.0938C86.6771 30.3438 86.7812 30.625 86.8438 30.9375C86.9271 31.2292 86.9792 31.5 87 31.75C87.0625 32.2708 86.9271 32.8125 86.5938 33.375C86.2604 33.9375 85.8542 34.5521 85.375 35.2188C85.0833 35.6354 84.7917 36.1042 84.5 36.625C84.2083 37.1458 84.0833 37.6146 84.125 38.0312C84.1667 38.3021 84.2396 38.5208 84.3438 38.6875C84.4479 38.8542 84.7396 38.9375 85.2188 38.9375C85.5729 38.9375 85.9583 38.8125 86.375 38.5625C86.8125 38.2917 87.25 37.9583 87.6875 37.5625C88.1458 37.1458 88.5938 36.6979 89.0312 36.2188C89.4688 35.7188 89.875 35.2396 90.25 34.7812C90.625 34.3021 90.9375 33.875 91.1875 33.5C91.4583 33.125 91.6562 32.8542 91.7812 32.6875C91.8854 32.5208 92.0208 32.4062 92.1875 32.3438C92.3542 32.2812 92.5 32.2812 92.625 32.3438C92.75 32.4062 92.8229 32.5312 92.8438 32.7188C92.8854 32.9062 92.8125 33.1562 92.625 33.4688C92.5 33.6771 92.2812 34.0104 91.9688 34.4688C91.6771 34.9271 91.3125 35.4375 90.875 36C90.4583 36.5625 89.9896 37.1458 89.4688 37.75C88.9479 38.3333 88.3958 38.875 87.8125 39.375C87.25 39.8542 86.6771 40.25 86.0938 40.5625C85.5312 40.875 84.9896 41.0312 84.4688 41.0312C83.9271 41.0312 83.4792 40.9271 83.125 40.7188C82.7708 40.5104 82.4792 40.2604 82.25 39.9688C82.0417 39.6562 81.8854 39.3229 81.7812 38.9688C81.6979 38.5938 81.6667 38.25 81.6875 37.9375C81.7083 37.6875 81.7708 37.4271 81.875 37.1562C82 36.8646 82.1354 36.5729 82.2812 36.2812C82.4479 35.9688 82.6146 35.6667 82.7812 35.375C82.9688 35.0625 83.1354 34.7604 83.2812 34.4688C83.6354 33.8646 83.9167 33.3542 84.125 32.9375C84.3542 32.5 84.4688 32.1354 84.4688 31.8438C84.4688 31.6562 84.4271 31.4896 84.3438 31.3438C84.2604 31.1979 84.125 31.125 83.9375 31.125C83.8125 31.125 83.7188 31.1354 83.6562 31.1562C83.6146 31.1562 83.5625 31.1562 83.5 31.1562C83.4583 31.1562 83.3854 31.1667 83.2812 31.1875C83.1979 31.1875 83.0625 31.1875 82.875 31.1875C82.6042 31.1875 82.375 31.1458 82.1875 31.0625C82 30.9792 81.8229 30.9167 81.6562 30.875C81.5729 31.0208 81.3854 31.3333 81.0938 31.8125C80.8021 32.2917 80.4583 32.8542 80.0625 33.5C79.6875 34.1458 79.2812 34.8229 78.8438 35.5312C78.4271 36.2396 78.0312 36.9062 77.6562 37.5312C77.2812 38.1354 76.9688 38.6562 76.7188 39.0938C76.4479 39.5104 76.2812 39.7604 76.2188 39.8438ZM97.2812 21.5938C97.2188 21.8229 97.0938 22.0521 96.9062 22.2812C96.7396 22.4896 96.5417 22.6667 96.3125 22.8125C96.1042 22.9375 95.8854 23.0208 95.6562 23.0625C95.4271 23.1042 95.2396 23.0625 95.0938 22.9375C94.6562 22.6042 94.4271 22.25 94.4062 21.875C94.3854 21.4792 94.4792 21.1146 94.6875 20.7812C94.8958 20.4271 95.1562 20.1354 95.4688 19.9062C95.7812 19.6562 96.0521 19.5104 96.2812 19.4688C96.5104 19.4271 96.6979 19.4792 96.8438 19.625C97.0104 19.75 97.1354 19.9271 97.2188 20.1562C97.3021 20.3646 97.3438 20.6042 97.3438 20.875C97.3646 21.1458 97.3438 21.3854 97.2812 21.5938ZM92.9688 28.25C93.0729 28.125 93.2708 28.0208 93.5625 27.9375C93.8542 27.8542 94.1562 27.7917 94.4688 27.75C94.7812 27.6875 95.0625 27.6562 95.3125 27.6562C95.5833 27.6354 95.7396 27.6354 95.7812 27.6562C95.8021 27.6771 95.75 27.8958 95.625 28.3125C95.5 28.7292 95.3438 29.2188 95.1562 29.7812C94.9688 30.3438 94.7708 30.9271 94.5625 31.5312C94.3542 32.1146 94.1979 32.5938 94.0938 32.9688C93.9896 33.3438 93.8646 33.7708 93.7188 34.25C93.5729 34.7083 93.4375 35.1667 93.3125 35.625C93.2083 36.0625 93.1354 36.4792 93.0938 36.875C93.0521 37.2708 93.0833 37.5729 93.1875 37.7812C93.2917 38.0312 93.4062 38.2083 93.5312 38.3125C93.6562 38.3958 93.7917 38.4375 93.9375 38.4375C94.3542 38.4375 94.875 38.2083 95.5 37.75C96.1458 37.2917 96.7917 36.75 97.4375 36.125C98.1042 35.4792 98.7188 34.8333 99.2812 34.1875C99.8438 33.5208 100.26 32.9896 100.531 32.5938C100.698 32.3854 100.865 32.25 101.031 32.1875C101.219 32.125 101.365 32.1354 101.469 32.2188C101.594 32.3021 101.656 32.4375 101.656 32.625C101.677 32.8125 101.615 33.0312 101.469 33.2812C101.135 33.8646 100.646 34.5625 100 35.375C99.3542 36.1667 98.6667 36.9375 97.9375 37.6875C97.2083 38.4167 96.4896 39.0417 95.7812 39.5625C95.0938 40.0833 94.5312 40.3542 94.0938 40.375C93.7396 40.3958 93.3854 40.3333 93.0312 40.1875C92.6979 40.0625 92.3854 39.8854 92.0938 39.6562C91.8229 39.4062 91.5938 39.125 91.4062 38.8125C91.2188 38.4792 91.1146 38.1354 91.0938 37.7812C91.0312 37.2604 91.0312 36.5521 91.0938 35.6562C91.1562 34.7396 91.2708 33.8125 91.4375 32.875C91.6042 31.9167 91.8125 31.0104 92.0625 30.1562C92.3333 29.3021 92.6354 28.6667 92.9688 28.25ZM115.219 33.7812C114.927 34.1979 114.552 34.7188 114.094 35.3438C113.635 35.9479 113.156 36.5625 112.656 37.1875C112.177 37.7917 111.698 38.3542 111.219 38.875C110.76 39.375 110.375 39.7292 110.062 39.9375C109.854 40.0625 109.615 40.1667 109.344 40.25C109.073 40.3333 108.792 40.3854 108.5 40.4062C108.229 40.4271 107.969 40.4062 107.719 40.3438C107.469 40.3021 107.25 40.2188 107.062 40.0938C106.875 39.9479 106.719 39.7396 106.594 39.4688C106.49 39.2396 106.385 38.9375 106.281 38.5625C106.198 38.1875 106.167 37.7188 106.188 37.1562C105.688 37.9896 105.135 38.6354 104.531 39.0938C103.927 39.5312 103.354 39.8542 102.812 40.0625C102.188 40.2917 101.562 40.4271 100.938 40.4688C100.646 40.4688 100.333 40.3646 100 40.1562C99.6667 39.9688 99.3854 39.6667 99.1562 39.25C98.9271 38.8125 98.7812 38.2604 98.7188 37.5938C98.6562 36.9062 98.7396 36.0938 98.9688 35.1562C99.2604 33.8854 99.7188 32.7292 100.344 31.6875C100.99 30.6458 101.688 29.7604 102.438 29.0312C103.188 28.2812 103.927 27.7188 104.656 27.3438C105.385 26.9688 105.99 26.8021 106.469 26.8438C107.031 26.9479 107.49 27.1146 107.844 27.3438C108.135 27.5521 108.323 27.8646 108.406 28.2812C108.51 28.6771 108.344 29.2083 107.906 29.875C108.198 29.8125 108.438 29.7708 108.625 29.75C108.833 29.7292 108.99 29.7188 109.094 29.7188C109.219 29.7188 109.302 29.7292 109.344 29.75C109.365 29.7917 109.375 29.8854 109.375 30.0312C109.375 30.1562 109.344 30.3958 109.281 30.75C109.219 31.1042 109.125 31.5833 109 32.1875C108.875 32.7917 108.708 33.5729 108.5 34.5312C108.458 34.7188 108.417 34.8958 108.375 35.0625C108.354 35.2083 108.323 35.3646 108.281 35.5312C108.26 35.6771 108.229 35.8542 108.188 36.0625C108.146 36.2708 108.094 36.5312 108.031 36.8438C108.01 37.0312 108 37.2396 108 37.4688C108.021 37.6771 108.062 37.875 108.125 38.0625C108.188 38.25 108.281 38.4062 108.406 38.5312C108.552 38.6354 108.75 38.6875 109 38.6875C109.208 38.6875 109.479 38.5625 109.812 38.3125C110.146 38.0417 110.5 37.7083 110.875 37.3125C111.25 36.8958 111.635 36.4479 112.031 35.9688C112.448 35.4688 112.833 34.9896 113.188 34.5312C113.542 34.0729 113.854 33.6667 114.125 33.3125C114.417 32.9583 114.625 32.6979 114.75 32.5312C114.917 32.3438 115.083 32.2396 115.25 32.2188C115.417 32.1771 115.542 32.2188 115.625 32.3438C115.708 32.4688 115.719 32.6562 115.656 32.9062C115.615 33.1562 115.469 33.4479 115.219 33.7812ZM106.062 35.1562C106.167 34.7396 106.292 34.25 106.438 33.6875C106.583 33.125 106.708 32.5833 106.812 32.0625C106.917 31.5417 106.99 31.1146 107.031 30.7812C107.094 30.4271 107.083 30.2604 107 30.2812C106.896 30.3021 106.781 30.3333 106.656 30.375C106.552 30.4167 106.417 30.4479 106.25 30.4688C106.083 30.4896 105.917 30.5208 105.75 30.5625C105.917 30.2292 106.01 29.9583 106.031 29.75C106.073 29.5208 106.083 29.3438 106.062 29.2188C106.042 29.0729 106 28.9583 105.938 28.875C105.708 28.6875 105.302 28.8438 104.719 29.3438C104.156 29.8229 103.5 30.7188 102.75 32.0312C102.438 32.5729 102.188 33.1562 102 33.7812C101.812 34.3854 101.677 34.9583 101.594 35.5C101.531 36.0417 101.521 36.5208 101.562 36.9375C101.604 37.3333 101.688 37.5938 101.812 37.7188C102.042 37.9479 102.302 38.0625 102.594 38.0625C102.885 38.0417 103.177 37.9583 103.469 37.8125C103.781 37.6458 104.083 37.4375 104.375 37.1875C104.688 36.9375 104.958 36.6771 105.188 36.4062C105.438 36.1354 105.635 35.8854 105.781 35.6562C105.948 35.4271 106.042 35.2604 106.062 35.1562ZM127.719 33.25C127.969 33.2083 128.219 33.1667 128.469 33.125C128.719 33.0625 128.99 32.9896 129.281 32.9062C128.927 32.5729 128.458 32.3646 127.875 32.2812C127.812 32.6146 127.76 32.9375 127.719 33.25ZM140.5 23.5938C140.417 24.4896 140.177 25.4271 139.781 26.4062C139.406 27.3854 138.875 28.3333 138.188 29.25C137.5 30.1667 136.667 31.0208 135.688 31.8125C134.708 32.6042 133.594 33.25 132.344 33.75C132.531 34.1042 132.708 34.4792 132.875 34.875C133.042 35.2708 133.188 35.7188 133.312 36.2188C133.5 36.8854 133.656 37.5729 133.781 38.2812C133.927 38.9896 134.042 39.6771 134.125 40.3438C134.229 41.0104 134.312 41.625 134.375 42.1875C134.458 42.7708 134.521 43.25 134.562 43.625C134.646 44.25 134.844 44.6875 135.156 44.9375C135.49 45.2083 135.854 45.3542 136.25 45.375C136.667 45.4167 137.073 45.375 137.469 45.25C137.885 45.125 138.208 44.9896 138.438 44.8438C138.417 44.8646 138.302 45.0417 138.094 45.375C137.885 45.7292 137.604 46.0938 137.25 46.4688C136.896 46.8646 136.469 47.1979 135.969 47.4688C135.49 47.7604 134.948 47.8542 134.344 47.75C133.927 47.6875 133.552 47.5417 133.219 47.3125C132.906 47.1042 132.625 46.7812 132.375 46.3438C132.146 45.9271 131.958 45.3854 131.812 44.7188C131.667 44.0521 131.573 43.2396 131.531 42.2812C131.49 40.9896 131.438 39.7604 131.375 38.5938C131.333 37.4062 131.115 36.3125 130.719 35.3125C130.656 35.1458 130.594 34.9896 130.531 34.8438C130.469 34.6771 130.396 34.5312 130.312 34.4062C129.458 34.6146 128.5 34.75 127.438 34.8125C127.292 35.6042 127.135 36.4167 126.969 37.25C126.802 38.0833 126.625 38.8958 126.438 39.6875C126.271 40.4792 126.083 41.2188 125.875 41.9062C125.688 42.6146 125.5 43.2188 125.312 43.7188C125.104 44.2396 124.833 44.6562 124.5 44.9688C124.188 45.3021 123.677 45.4688 122.969 45.4688C122.552 45.4688 122.188 45.375 121.875 45.1875C121.562 45 121.26 44.7396 120.969 44.4062C121.052 44.3438 121.188 44.2396 121.375 44.0938C121.542 43.9688 121.75 43.6979 122 43.2812C122.229 42.8854 122.479 42.3125 122.75 41.5625C123.042 40.8125 123.333 39.8021 123.625 38.5312C123.729 38.0104 123.865 37.4062 124.031 36.7188C124.219 36.0104 124.417 35.2396 124.625 34.4062C123.792 33.9479 123.406 33.3333 123.469 32.5625C123.51 32.0833 123.729 31.6771 124.125 31.3438C124.521 31.0104 125 30.7812 125.562 30.6562C125.833 29.5729 126.104 28.4792 126.375 27.375C126.667 26.2708 126.938 25.2396 127.188 24.2812C127.438 23.3021 127.667 22.4271 127.875 21.6562C128.083 20.8646 128.25 20.2396 128.375 19.7812C128 20.0312 127.625 20.3125 127.25 20.625C126.917 20.8958 126.552 21.2083 126.156 21.5625C125.781 21.8958 125.427 22.25 125.094 22.625C124.927 22.5 124.792 22.3646 124.688 22.2188C124.583 22.0729 124.5 21.9479 124.438 21.8438C124.354 21.7188 124.292 21.5833 124.25 21.4375C124.104 21.1458 124.031 20.8333 124.031 20.5C124.031 20.1458 124.281 19.7917 124.781 19.4375C125.052 19.25 125.458 18.9792 126 18.625C126.562 18.2708 127.25 17.9271 128.062 17.5938C128.875 17.2604 129.812 16.9688 130.875 16.7188C131.958 16.4688 133.156 16.3438 134.469 16.3438C135.781 16.3438 136.844 16.6042 137.656 17.125C138.469 17.6458 139.094 18.2812 139.531 19.0312C139.969 19.7812 140.25 20.5729 140.375 21.4062C140.521 22.2396 140.562 22.9688 140.5 23.5938ZM131.062 32.1875C131.792 31.8333 132.51 31.3958 133.219 30.875C133.948 30.3542 134.604 29.7292 135.188 29C135.771 28.2708 136.26 27.4479 136.656 26.5312C137.052 25.5938 137.302 24.5417 137.406 23.375C137.49 22.3333 137.417 21.4688 137.188 20.7812C136.979 20.0729 136.656 19.5104 136.219 19.0938C135.802 18.6771 135.323 18.3854 134.781 18.2188C134.24 18.0312 133.698 17.9375 133.156 17.9375C132.656 17.9375 132.146 18.0104 131.625 18.1562C131.125 18.3021 130.635 18.4896 130.156 18.7188C130.219 18.7396 130.292 18.7917 130.375 18.875C130.417 18.9375 130.458 19.0208 130.5 19.125C130.562 19.2083 130.604 19.3021 130.625 19.4062C130.146 21.4271 129.76 23.1146 129.469 24.4688C129.177 25.8229 128.938 26.9271 128.75 27.7812C128.521 28.7812 128.354 29.5833 128.25 30.1875C128.229 30.2708 128.208 30.3542 128.188 30.4375C128.188 30.5208 128.177 30.6146 128.156 30.7188C128.615 30.8229 129.094 30.9896 129.594 31.2188C130.094 31.4271 130.583 31.75 131.062 32.1875ZM149.281 35.0312C149.073 35.8229 148.792 36.5625 148.438 37.25C148.083 37.9375 147.656 38.5312 147.156 39.0312C146.677 39.5312 146.125 39.9167 145.5 40.1875C144.896 40.4792 144.229 40.625 143.5 40.625C142.646 40.625 141.969 40.4375 141.469 40.0625C140.99 39.7083 140.625 39.2604 140.375 38.7188C140.146 38.1771 140.01 37.5833 139.969 36.9375C139.906 36.2917 139.875 35.6875 139.875 35.125C139.875 34.7292 139.927 34.2917 140.031 33.8125C140.115 33.3333 140.24 32.8438 140.406 32.3438C140.573 31.8438 140.781 31.3438 141.031 30.8438C141.302 30.3438 141.615 29.8854 141.969 29.4688C142.094 29.1146 142.281 28.8021 142.531 28.5312C142.802 28.2604 143.104 28.0417 143.438 27.875C143.792 27.6875 144.167 27.5521 144.562 27.4688C144.958 27.3646 145.344 27.3125 145.719 27.3125C145.781 27.3125 145.833 27.3229 145.875 27.3438C145.938 27.3646 146 27.3854 146.062 27.4062C146.333 27.4271 146.667 27.5312 147.062 27.7188C147.479 27.9062 147.875 28.1875 148.25 28.5625C148.646 28.9375 148.979 29.4167 149.25 30C149.521 30.5625 149.656 31.25 149.656 32.0625C149.656 32.2292 149.646 32.4375 149.625 32.6875C149.604 32.9167 149.583 33.1146 149.562 33.2812C150.042 33.0938 150.542 32.8646 151.062 32.5938C151.583 32.3229 152.083 32.0417 152.562 31.75C153.062 31.4375 153.521 31.125 153.938 30.8125C154.354 30.5 154.688 30.2188 154.938 29.9688C155.146 29.7812 155.323 29.6771 155.469 29.6562C155.615 29.6354 155.719 29.6771 155.781 29.7812C155.844 29.8854 155.854 30.0312 155.812 30.2188C155.771 30.4062 155.656 30.6146 155.469 30.8438C155.365 30.9688 155.094 31.2188 154.656 31.5938C154.24 31.9688 153.74 32.375 153.156 32.8125C152.573 33.25 151.938 33.6771 151.25 34.0938C150.562 34.5104 149.906 34.8229 149.281 35.0312ZM144 30.2812C143.938 30.4688 143.906 30.6667 143.906 30.875C143.906 31.2083 143.927 31.5625 143.969 31.9375C144.01 32.2917 144.115 32.6146 144.281 32.9062C144.448 33.1979 144.708 33.4479 145.062 33.6562C145.438 33.8438 145.948 33.9375 146.594 33.9375C146.698 33.9375 146.802 33.9375 146.906 33.9375C147.01 33.9167 147.115 33.8958 147.219 33.875C147.281 33.6042 147.333 33.3646 147.375 33.1562C147.438 32.9271 147.469 32.7292 147.469 32.5625C147.51 32.1667 147.51 31.7604 147.469 31.3438C147.427 30.9271 147.344 30.5521 147.219 30.2188C147.115 29.8646 146.969 29.5833 146.781 29.375C146.615 29.1458 146.406 29.0312 146.156 29.0312C145.76 29.0312 145.375 29.1458 145 29.375C144.646 29.5833 144.312 29.8854 144 30.2812ZM142 35.7812C142 36.1562 142.021 36.5312 142.062 36.9062C142.104 37.2604 142.188 37.5833 142.312 37.875C142.438 38.1458 142.604 38.375 142.812 38.5625C143.021 38.7292 143.292 38.8125 143.625 38.8125C144 38.8125 144.344 38.7292 144.656 38.5625C144.969 38.375 145.25 38.1458 145.5 37.875C145.75 37.5833 145.969 37.2604 146.156 36.9062C146.365 36.5312 146.542 36.1458 146.688 35.75C146.542 35.7708 146.396 35.7917 146.25 35.8125C146.125 35.8125 145.979 35.8125 145.812 35.8125C145.021 35.8125 144.333 35.5833 143.75 35.125C143.188 34.6458 142.75 34.0417 142.438 33.3125C142.312 33.75 142.208 34.1771 142.125 34.5938C142.042 35.0104 142 35.4062 142 35.7812ZM167.188 38.5625C167.188 38.125 167.229 37.625 167.312 37.0625C167.417 36.5 167.542 35.9271 167.688 35.3438C167.833 34.7396 167.979 34.1562 168.125 33.5938C168.271 33.0312 168.396 32.5312 168.5 32.0938C168.625 31.5521 168.615 31.1354 168.469 30.8438C168.323 30.5521 168.073 30.4062 167.719 30.4062C167.552 30.4062 167.219 30.5521 166.719 30.8438C166.24 31.1354 165.708 31.6458 165.125 32.375C164.562 33.0833 164 34.0521 163.438 35.2812C162.896 36.4896 162.469 38.0312 162.156 39.9062C161.76 40.1146 161.385 40.25 161.031 40.3125C160.844 40.3542 160.677 40.3854 160.531 40.4062C160.115 40.4271 159.844 40.3542 159.719 40.1875C159.594 40.0417 159.615 39.6667 159.781 39.0625C159.865 38.7708 160.01 38.3021 160.219 37.6562C160.448 37.0104 160.667 36.3125 160.875 35.5625C161.083 34.7917 161.26 34.0312 161.406 33.2812C161.573 32.5104 161.656 31.8438 161.656 31.2812C161.656 30.8854 161.583 30.6146 161.438 30.4688C161.312 30.3229 161.125 30.25 160.875 30.25C160.688 30.25 160.375 30.3542 159.938 30.5625C159.5 30.7708 159.01 31.1771 158.469 31.7812C157.927 32.3854 157.385 33.2292 156.844 34.3125C156.323 35.375 155.875 36.7604 155.5 38.4688V38.4062C155.458 38.5729 155.417 38.7396 155.375 38.9062C155.333 39.0521 155.302 39.2083 155.281 39.375C155.26 39.5417 155.229 39.6979 155.188 39.8438L153.625 40.5312C153.521 40.5729 153.385 40.6042 153.219 40.625C153.073 40.6458 152.927 40.6146 152.781 40.5312C152.656 40.4688 152.562 40.3229 152.5 40.0938C152.438 39.8646 152.458 39.5208 152.562 39.0625L154.531 30.9062C154.594 30.6354 154.646 30.375 154.688 30.125C154.729 29.8958 154.75 29.6771 154.75 29.4688C154.771 29.2396 154.76 29.0521 154.719 28.9062C155.073 28.7396 155.385 28.6146 155.656 28.5312C155.927 28.4479 156.146 28.3854 156.312 28.3438C156.521 28.2812 156.698 28.25 156.844 28.25C157.51 28.25 157.729 28.8229 157.5 29.9688C157.417 30.3021 157.292 30.7917 157.125 31.4375C157.521 30.9375 157.938 30.4688 158.375 30.0312C158.833 29.5729 159.292 29.1667 159.75 28.8125C160.208 28.4583 160.667 28.1771 161.125 27.9688C161.604 27.7604 162.073 27.6562 162.531 27.6562C162.885 27.6562 163.177 27.7604 163.406 27.9688C163.656 28.1771 163.844 28.4583 163.969 28.8125C164.115 29.1458 164.198 29.5521 164.219 30.0312C164.24 30.4896 164.219 30.9688 164.156 31.4688C164.49 31.0312 164.854 30.5938 165.25 30.1562C165.667 29.6979 166.094 29.2917 166.531 28.9375C166.99 28.5833 167.458 28.2917 167.938 28.0625C168.417 27.8333 168.896 27.7188 169.375 27.7188C169.938 27.7188 170.365 27.8854 170.656 28.2188C170.969 28.5521 171.177 28.9792 171.281 29.5C171.406 30.0208 171.438 30.5833 171.375 31.1875C171.333 31.7917 171.25 32.375 171.125 32.9375L170.062 37.1562C169.833 38.1979 170.052 38.7188 170.719 38.7188C171.24 38.7188 171.812 38.4688 172.438 37.9688C173.062 37.4688 173.667 36.875 174.25 36.1875C174.854 35.5 175.417 34.7917 175.938 34.0625C176.458 33.3333 176.896 32.75 177.25 32.3125C177.375 32.1667 177.5 32.0833 177.625 32.0625C177.771 32.0417 177.885 32.0729 177.969 32.1562C178.073 32.2188 178.125 32.3333 178.125 32.5C178.146 32.6667 178.094 32.875 177.969 33.125C177.552 33.8542 177.042 34.6667 176.438 35.5625C175.833 36.4375 175.167 37.2604 174.438 38.0312C173.729 38.8021 172.969 39.4479 172.156 39.9688C171.344 40.4896 170.5 40.75 169.625 40.75C169.333 40.75 169.042 40.7188 168.75 40.6562C168.479 40.5938 168.219 40.4792 167.969 40.3125C167.74 40.1458 167.552 39.9271 167.406 39.6562C167.26 39.3646 167.188 39 167.188 38.5625ZM191.625 33.7812C191.333 34.1979 190.958 34.7188 190.5 35.3438C190.042 35.9479 189.562 36.5625 189.062 37.1875C188.583 37.7917 188.104 38.3542 187.625 38.875C187.167 39.375 186.781 39.7292 186.469 39.9375C186.26 40.0625 186.021 40.1667 185.75 40.25C185.479 40.3333 185.198 40.3854 184.906 40.4062C184.635 40.4271 184.375 40.4062 184.125 40.3438C183.875 40.3021 183.656 40.2188 183.469 40.0938C183.281 39.9479 183.125 39.7396 183 39.4688C182.896 39.2396 182.792 38.9375 182.688 38.5625C182.604 38.1875 182.573 37.7188 182.594 37.1562C182.094 37.9896 181.542 38.6354 180.938 39.0938C180.333 39.5312 179.76 39.8542 179.219 40.0625C178.594 40.2917 177.969 40.4271 177.344 40.4688C177.052 40.4688 176.74 40.3646 176.406 40.1562C176.073 39.9688 175.792 39.6667 175.562 39.25C175.333 38.8125 175.188 38.2604 175.125 37.5938C175.062 36.9062 175.146 36.0938 175.375 35.1562C175.667 33.8854 176.125 32.7292 176.75 31.6875C177.396 30.6458 178.094 29.7604 178.844 29.0312C179.594 28.2812 180.333 27.7188 181.062 27.3438C181.792 26.9688 182.396 26.8021 182.875 26.8438C183.438 26.9479 183.896 27.1146 184.25 27.3438C184.542 27.5521 184.729 27.8646 184.812 28.2812C184.917 28.6771 184.75 29.2083 184.312 29.875C184.604 29.8125 184.844 29.7708 185.031 29.75C185.24 29.7292 185.396 29.7188 185.5 29.7188C185.625 29.7188 185.708 29.7292 185.75 29.75C185.771 29.7917 185.781 29.8854 185.781 30.0312C185.781 30.1562 185.75 30.3958 185.688 30.75C185.625 31.1042 185.531 31.5833 185.406 32.1875C185.281 32.7917 185.115 33.5729 184.906 34.5312C184.865 34.7188 184.823 34.8958 184.781 35.0625C184.76 35.2083 184.729 35.3646 184.688 35.5312C184.667 35.6771 184.635 35.8542 184.594 36.0625C184.552 36.2708 184.5 36.5312 184.438 36.8438C184.417 37.0312 184.406 37.2396 184.406 37.4688C184.427 37.6771 184.469 37.875 184.531 38.0625C184.594 38.25 184.688 38.4062 184.812 38.5312C184.958 38.6354 185.156 38.6875 185.406 38.6875C185.615 38.6875 185.885 38.5625 186.219 38.3125C186.552 38.0417 186.906 37.7083 187.281 37.3125C187.656 36.8958 188.042 36.4479 188.438 35.9688C188.854 35.4688 189.24 34.9896 189.594 34.5312C189.948 34.0729 190.26 33.6667 190.531 33.3125C190.823 32.9583 191.031 32.6979 191.156 32.5312C191.323 32.3438 191.49 32.2396 191.656 32.2188C191.823 32.1771 191.948 32.2188 192.031 32.3438C192.115 32.4688 192.125 32.6562 192.062 32.9062C192.021 33.1562 191.875 33.4479 191.625 33.7812ZM182.469 35.1562C182.573 34.7396 182.698 34.25 182.844 33.6875C182.99 33.125 183.115 32.5833 183.219 32.0625C183.323 31.5417 183.396 31.1146 183.438 30.7812C183.5 30.4271 183.49 30.2604 183.406 30.2812C183.302 30.3021 183.188 30.3333 183.062 30.375C182.958 30.4167 182.823 30.4479 182.656 30.4688C182.49 30.4896 182.323 30.5208 182.156 30.5625C182.323 30.2292 182.417 29.9583 182.438 29.75C182.479 29.5208 182.49 29.3438 182.469 29.2188C182.448 29.0729 182.406 28.9583 182.344 28.875C182.115 28.6875 181.708 28.8438 181.125 29.3438C180.562 29.8229 179.906 30.7188 179.156 32.0312C178.844 32.5729 178.594 33.1562 178.406 33.7812C178.219 34.3854 178.083 34.9583 178 35.5C177.938 36.0417 177.927 36.5208 177.969 36.9375C178.01 37.3333 178.094 37.5938 178.219 37.7188C178.448 37.9479 178.708 38.0625 179 38.0625C179.292 38.0417 179.583 37.9583 179.875 37.8125C180.188 37.6458 180.49 37.4375 180.781 37.1875C181.094 36.9375 181.365 36.6771 181.594 36.4062C181.844 36.1354 182.042 35.8854 182.188 35.6562C182.354 35.4271 182.448 35.2604 182.469 35.1562ZM198.812 40.7812C198.333 40.7812 197.917 40.6875 197.562 40.5C197.229 40.3333 196.958 40.1042 196.75 39.8125C196.542 39.5208 196.406 39.1875 196.344 38.8125C196.281 38.4167 196.302 38 196.406 37.5625C196.469 37.2708 196.573 36.8854 196.719 36.4062C196.865 35.9062 197.01 35.375 197.156 34.8125C197.323 34.2292 197.469 33.6562 197.594 33.0938C197.74 32.5104 197.833 31.9896 197.875 31.5312C197.917 31.0521 197.896 30.6667 197.812 30.375C197.729 30.0625 197.552 29.9062 197.281 29.9062C196.948 29.9062 196.604 30.0208 196.25 30.25C195.896 30.4583 195.531 30.75 195.156 31.125C194.802 31.5 194.438 31.9375 194.062 32.4375C193.708 32.9167 193.354 33.4167 193 33.9375C192.812 34.6458 192.656 35.2708 192.531 35.8125C192.406 36.3333 192.292 36.8125 192.188 37.25C192.104 37.6667 192.021 38.0417 191.938 38.375C191.854 38.6875 191.781 38.9896 191.719 39.2812C191.656 39.4896 191.469 39.6979 191.156 39.9062C190.844 40.0938 190.51 40.25 190.156 40.375C189.802 40.5 189.5 40.5625 189.25 40.5625C188.979 40.5625 188.865 40.4688 188.906 40.2812C188.927 40.1562 189 39.875 189.125 39.4375C189.229 39 189.365 38.4896 189.531 37.9062C189.677 37.3021 189.833 36.6667 190 36C190.167 35.3333 190.323 34.6979 190.469 34.0938C190.573 33.6146 190.688 33.0833 190.812 32.5C190.917 32 191.042 31.4167 191.188 30.75C191.354 30.0833 191.542 29.3542 191.75 28.5625C191.896 28.4375 192.042 28.3438 192.188 28.2812C192.354 28.1979 192.521 28.1354 192.688 28.0938C192.854 28.0312 193.031 27.9896 193.219 27.9688C193.385 27.9688 193.552 27.9792 193.719 28C193.865 28.0208 194.01 28.0625 194.156 28.125C194.323 28.1667 194.469 28.2396 194.594 28.3438C194.531 28.4896 194.458 28.6979 194.375 28.9688C194.292 29.2188 194.208 29.4896 194.125 29.7812C194.042 30.1146 193.938 30.4583 193.812 30.8125C194.083 30.4375 194.385 30.0625 194.719 29.6875C195.073 29.2917 195.448 28.9375 195.844 28.625C196.26 28.3125 196.698 28.0625 197.156 27.875C197.615 27.6667 198.083 27.5625 198.562 27.5625C198.958 27.5625 199.312 27.6771 199.625 27.9062C199.938 28.1354 200.177 28.4583 200.344 28.875C200.531 29.2708 200.635 29.75 200.656 30.3125C200.698 30.875 200.625 31.4896 200.438 32.1562L200.094 33.5312C199.99 33.9688 199.854 34.4896 199.688 35.0938C199.542 35.6771 199.354 36.3229 199.125 37.0312C199 37.4896 198.948 37.8854 198.969 38.2188C199.01 38.5521 199.219 38.7188 199.594 38.7188C199.969 38.7188 200.438 38.4896 201 38.0312C201.583 37.5729 202.167 37.0208 202.75 36.375C203.333 35.7292 203.885 35.0729 204.406 34.4062C204.927 33.7188 205.323 33.1667 205.594 32.75C205.781 32.4792 205.958 32.3021 206.125 32.2188C206.292 32.1354 206.417 32.125 206.5 32.1875C206.604 32.25 206.656 32.3958 206.656 32.625C206.656 32.8333 206.573 33.1042 206.406 33.4375C206.26 33.7292 206.031 34.1146 205.719 34.5938C205.427 35.0729 205.073 35.5833 204.656 36.125C204.24 36.6667 203.792 37.2188 203.312 37.7812C202.833 38.3229 202.333 38.8229 201.812 39.2812C201.292 39.7188 200.771 40.0729 200.25 40.3438C199.75 40.6354 199.271 40.7812 198.812 40.7812ZM215.844 32.0938C215.927 31.9688 216.031 31.8958 216.156 31.875C216.302 31.8333 216.417 31.8438 216.5 31.9062C216.583 31.9688 216.625 32.0729 216.625 32.2188C216.646 32.3646 216.594 32.5625 216.469 32.8125C216.052 33.6042 215.5 34.4583 214.812 35.375C214.146 36.2917 213.438 37.1562 212.688 37.9688C211.938 38.7604 211.208 39.4167 210.5 39.9375C209.792 40.4583 209.198 40.7188 208.719 40.7188C208.031 40.7188 207.458 40.5833 207 40.3125C206.542 40.0417 206.177 39.7083 205.906 39.3125C205.656 38.9167 205.479 38.4896 205.375 38.0312C205.271 37.5521 205.24 37.1146 205.281 36.7188C205.302 36.3854 205.375 35.7917 205.5 34.9375C205.625 34.0625 205.792 33.0625 206 31.9375C206.208 30.7917 206.438 29.5729 206.688 28.2812C206.958 26.9688 207.24 25.7083 207.531 24.5C207.177 24.5417 206.823 24.5833 206.469 24.625C206.115 24.6667 205.792 24.6875 205.5 24.6875C204.833 24.6875 204.208 24.6146 203.625 24.4688C203.021 24.3021 202.573 24.1458 202.281 24C202.115 23.9167 202.042 23.8021 202.062 23.6562C202.083 23.4896 202.146 23.3333 202.25 23.1875C202.354 23.0208 202.49 22.8854 202.656 22.7812C202.802 22.6562 202.938 22.5938 203.062 22.5938C203.458 22.6354 203.885 22.6771 204.344 22.7188C204.802 22.7396 205.302 22.7396 205.844 22.7188C206.24 22.6979 206.615 22.6667 206.969 22.625C207.344 22.5833 207.708 22.5312 208.062 22.4688C208.333 21.4688 208.594 20.6042 208.844 19.875C209.115 19.125 209.354 18.6042 209.562 18.3125C209.625 18.2083 209.76 18.125 209.969 18.0625C210.198 17.9792 210.438 17.9271 210.688 17.9062C210.938 17.8646 211.177 17.8646 211.406 17.9062C211.635 17.9271 211.802 18 211.906 18.125C212.01 18.2917 212.052 18.7188 212.031 19.4062C212.01 20.0938 211.896 20.9688 211.688 22.0312C212.562 22.0312 213.333 22.0833 214 22.1875C214.688 22.2708 215.271 22.375 215.75 22.5C216.229 22.6042 216.615 22.7188 216.906 22.8438C217.198 22.9479 217.417 23.0208 217.562 23.0625C217.708 23.1042 217.781 23.2083 217.781 23.375C217.802 23.5417 217.771 23.7188 217.688 23.9062C217.625 24.0729 217.51 24.2188 217.344 24.3438C217.177 24.4688 216.99 24.5104 216.781 24.4688C216.573 24.4479 216.333 24.4062 216.062 24.3438C215.812 24.2812 215.5 24.2292 215.125 24.1875C214.771 24.1458 214.344 24.1042 213.844 24.0625C213.344 24.0208 212.76 24 212.094 24C211.969 24 211.823 24.0104 211.656 24.0312C211.51 24.0312 211.354 24.0312 211.188 24.0312C211.104 24.3646 211.021 24.6979 210.938 25.0312C210.875 25.3438 210.781 25.6771 210.656 26.0312C210.385 26.8646 210.073 27.7708 209.719 28.75C209.406 29.6042 209.031 30.5833 208.594 31.6875C208.156 32.7917 207.667 33.9688 207.125 35.2188C207 36.1146 207.01 36.8021 207.156 37.2812C207.323 37.7396 207.521 38.0729 207.75 38.2812C208.021 38.5104 208.354 38.6354 208.75 38.6562C209.062 38.6979 209.438 38.5938 209.875 38.3438C210.333 38.0729 210.802 37.7188 211.281 37.2812C211.76 36.8438 212.24 36.3646 212.719 35.8438C213.219 35.3229 213.677 34.8125 214.094 34.3125C214.51 33.8125 214.875 33.3646 215.188 32.9688C215.5 32.5521 215.719 32.2604 215.844 32.0938ZM220.844 21.5938C220.781 21.8229 220.656 22.0521 220.469 22.2812C220.302 22.4896 220.104 22.6667 219.875 22.8125C219.667 22.9375 219.448 23.0208 219.219 23.0625C218.99 23.1042 218.802 23.0625 218.656 22.9375C218.219 22.6042 217.99 22.25 217.969 21.875C217.948 21.4792 218.042 21.1146 218.25 20.7812C218.458 20.4271 218.719 20.1354 219.031 19.9062C219.344 19.6562 219.615 19.5104 219.844 19.4688C220.073 19.4271 220.26 19.4792 220.406 19.625C220.573 19.75 220.698 19.9271 220.781 20.1562C220.865 20.3646 220.906 20.6042 220.906 20.875C220.927 21.1458 220.906 21.3854 220.844 21.5938ZM216.531 28.25C216.635 28.125 216.833 28.0208 217.125 27.9375C217.417 27.8542 217.719 27.7917 218.031 27.75C218.344 27.6875 218.625 27.6562 218.875 27.6562C219.146 27.6354 219.302 27.6354 219.344 27.6562C219.365 27.6771 219.312 27.8958 219.188 28.3125C219.062 28.7292 218.906 29.2188 218.719 29.7812C218.531 30.3438 218.333 30.9271 218.125 31.5312C217.917 32.1146 217.76 32.5938 217.656 32.9688C217.552 33.3438 217.427 33.7708 217.281 34.25C217.135 34.7083 217 35.1667 216.875 35.625C216.771 36.0625 216.698 36.4792 216.656 36.875C216.615 37.2708 216.646 37.5729 216.75 37.7812C216.854 38.0312 216.969 38.2083 217.094 38.3125C217.219 38.3958 217.354 38.4375 217.5 38.4375C217.917 38.4375 218.438 38.2083 219.062 37.75C219.708 37.2917 220.354 36.75 221 36.125C221.667 35.4792 222.281 34.8333 222.844 34.1875C223.406 33.5208 223.823 32.9896 224.094 32.5938C224.26 32.3854 224.427 32.25 224.594 32.1875C224.781 32.125 224.927 32.1354 225.031 32.2188C225.156 32.3021 225.219 32.4375 225.219 32.625C225.24 32.8125 225.177 33.0312 225.031 33.2812C224.698 33.8646 224.208 34.5625 223.562 35.375C222.917 36.1667 222.229 36.9375 221.5 37.6875C220.771 38.4167 220.052 39.0417 219.344 39.5625C218.656 40.0833 218.094 40.3542 217.656 40.375C217.302 40.3958 216.948 40.3333 216.594 40.1875C216.26 40.0625 215.948 39.8854 215.656 39.6562C215.385 39.4062 215.156 39.125 214.969 38.8125C214.781 38.4792 214.677 38.1354 214.656 37.7812C214.594 37.2604 214.594 36.5521 214.656 35.6562C214.719 34.7396 214.833 33.8125 215 32.875C215.167 31.9167 215.375 31.0104 215.625 30.1562C215.896 29.3021 216.198 28.6667 216.531 28.25ZM228.062 38.9375C228.708 38.9375 229.417 38.6875 230.188 38.1875C230.979 37.6667 231.74 37.0625 232.469 36.375C233.219 35.6875 233.896 34.9896 234.5 34.2812C235.125 33.5521 235.594 32.9688 235.906 32.5312C236.094 32.2604 236.271 32.1042 236.438 32.0625C236.604 32 236.729 32.0208 236.812 32.125C236.896 32.2292 236.927 32.3958 236.906 32.625C236.885 32.8333 236.792 33.0729 236.625 33.3438C236.479 33.5938 236.229 33.9583 235.875 34.4375C235.542 34.8958 235.135 35.4062 234.656 35.9688C234.198 36.5104 233.667 37.0729 233.062 37.6562C232.479 38.2188 231.865 38.7396 231.219 39.2188C230.573 39.6771 229.906 40.0521 229.219 40.3438C228.531 40.6562 227.854 40.8125 227.188 40.8125C226.271 40.8125 225.5 40.6354 224.875 40.2812C224.271 39.9479 223.781 39.5104 223.406 38.9688C223.052 38.4271 222.802 37.8333 222.656 37.1875C222.51 36.5208 222.438 35.8646 222.438 35.2188C222.438 34.5729 222.583 33.7708 222.875 32.8125C223.167 31.8542 223.594 30.9375 224.156 30.0625C224.74 29.1667 225.469 28.4062 226.344 27.7812C227.219 27.1354 228.25 26.8125 229.438 26.8125C230.104 26.8125 230.667 27.0417 231.125 27.5C231.604 27.9583 231.833 28.5833 231.812 29.375C231.812 29.75 231.75 30.125 231.625 30.5C231.5 30.8542 231.333 31.1771 231.125 31.4688C230.917 31.7396 230.667 31.9583 230.375 32.125C230.104 32.2917 229.802 32.375 229.469 32.375C229.198 32.375 228.99 32.2812 228.844 32.0938C228.719 31.8854 228.635 31.6562 228.594 31.4062C228.573 31.1354 228.573 30.875 228.594 30.625C228.635 30.375 228.677 30.2083 228.719 30.125C228.823 29.9792 228.938 29.875 229.062 29.8125C229.188 29.75 229.333 29.6771 229.5 29.5938C229.625 29.5312 229.719 29.4375 229.781 29.3125C229.865 29.1875 229.906 29.0521 229.906 28.9062C229.906 28.7604 229.865 28.6354 229.781 28.5312C229.698 28.4271 229.562 28.375 229.375 28.375C229.188 28.375 228.844 28.5312 228.344 28.8438C227.865 29.1354 227.365 29.5833 226.844 30.1875C226.344 30.7708 225.896 31.5104 225.5 32.4062C225.104 33.3021 224.896 34.3438 224.875 35.5312C224.854 36.2188 224.948 36.7812 225.156 37.2188C225.365 37.6562 225.625 38 225.938 38.25C226.25 38.5 226.594 38.6771 226.969 38.7812C227.344 38.8854 227.708 38.9375 228.062 38.9375ZM243.625 35.0312C243.417 35.8229 243.135 36.5625 242.781 37.25C242.427 37.9375 242 38.5312 241.5 39.0312C241.021 39.5312 240.469 39.9167 239.844 40.1875C239.24 40.4792 238.573 40.625 237.844 40.625C236.99 40.625 236.312 40.4375 235.812 40.0625C235.333 39.7083 234.969 39.2604 234.719 38.7188C234.49 38.1771 234.354 37.5833 234.312 36.9375C234.25 36.2917 234.219 35.6875 234.219 35.125C234.219 34.7292 234.271 34.2917 234.375 33.8125C234.458 33.3333 234.583 32.8438 234.75 32.3438C234.917 31.8438 235.125 31.3438 235.375 30.8438C235.646 30.3438 235.958 29.8854 236.312 29.4688C236.438 29.1146 236.625 28.8021 236.875 28.5312C237.146 28.2604 237.448 28.0417 237.781 27.875C238.135 27.6875 238.51 27.5521 238.906 27.4688C239.302 27.3646 239.688 27.3125 240.062 27.3125C240.125 27.3125 240.177 27.3229 240.219 27.3438C240.281 27.3646 240.344 27.3854 240.406 27.4062C240.677 27.4271 241.01 27.5312 241.406 27.7188C241.823 27.9062 242.219 28.1875 242.594 28.5625C242.99 28.9375 243.323 29.4167 243.594 30C243.865 30.5625 244 31.25 244 32.0625C244 32.2292 243.99 32.4375 243.969 32.6875C243.948 32.9167 243.927 33.1146 243.906 33.2812C244.385 33.0938 244.885 32.8646 245.406 32.5938C245.927 32.3229 246.427 32.0417 246.906 31.75C247.406 31.4375 247.865 31.125 248.281 30.8125C248.698 30.5 249.031 30.2188 249.281 29.9688C249.49 29.7812 249.667 29.6771 249.812 29.6562C249.958 29.6354 250.062 29.6771 250.125 29.7812C250.188 29.8854 250.198 30.0312 250.156 30.2188C250.115 30.4062 250 30.6146 249.812 30.8438C249.708 30.9688 249.438 31.2188 249 31.5938C248.583 31.9688 248.083 32.375 247.5 32.8125C246.917 33.25 246.281 33.6771 245.594 34.0938C244.906 34.5104 244.25 34.8229 243.625 35.0312ZM238.344 30.2812C238.281 30.4688 238.25 30.6667 238.25 30.875C238.25 31.2083 238.271 31.5625 238.312 31.9375C238.354 32.2917 238.458 32.6146 238.625 32.9062C238.792 33.1979 239.052 33.4479 239.406 33.6562C239.781 33.8438 240.292 33.9375 240.938 33.9375C241.042 33.9375 241.146 33.9375 241.25 33.9375C241.354 33.9167 241.458 33.8958 241.562 33.875C241.625 33.6042 241.677 33.3646 241.719 33.1562C241.781 32.9271 241.812 32.7292 241.812 32.5625C241.854 32.1667 241.854 31.7604 241.812 31.3438C241.771 30.9271 241.688 30.5521 241.562 30.2188C241.458 29.8646 241.312 29.5833 241.125 29.375C240.958 29.1458 240.75 29.0312 240.5 29.0312C240.104 29.0312 239.719 29.1458 239.344 29.375C238.99 29.5833 238.656 29.8854 238.344 30.2812ZM236.344 35.7812C236.344 36.1562 236.365 36.5312 236.406 36.9062C236.448 37.2604 236.531 37.5833 236.656 37.875C236.781 38.1458 236.948 38.375 237.156 38.5625C237.365 38.7292 237.635 38.8125 237.969 38.8125C238.344 38.8125 238.688 38.7292 239 38.5625C239.312 38.375 239.594 38.1458 239.844 37.875C240.094 37.5833 240.312 37.2604 240.5 36.9062C240.708 36.5312 240.885 36.1458 241.031 35.75C240.885 35.7708 240.74 35.7917 240.594 35.8125C240.469 35.8125 240.323 35.8125 240.156 35.8125C239.365 35.8125 238.677 35.5833 238.094 35.125C237.531 34.6458 237.094 34.0417 236.781 33.3125C236.656 33.75 236.552 34.1771 236.469 34.5938C236.385 35.0104 236.344 35.4062 236.344 35.7812Z" fill="white"/>
<path d="M1.448 42.5415H6.22205" stroke="white" stroke-linecap="round"/>
<path d="M9.69409 42.5415H121.233" stroke="white" stroke-linecap="round"/>
<path d="M137.725 42.5415H246.226" stroke="white" stroke-linecap="round"/>
</svg>
